<svg version="1.1" xmlns="http://www.w3.org/2000/svg" xmlns:xlink="http://www.w3.org/1999/xlink" x="0px" y="0px"
	 width="19.999px" height="19.998px" viewBox="0 0 19.999 19.998" >
	<path fill="#6DB7CA" d="M10,18.499c-4.687,0-8.5-3.813-8.5-8.499
		c0-4.687,3.813-8.5,8.5-8.5s8.5,3.813,8.5,8.5C18.499,14.686,14.686,18.499,10,18.499z"/>
	<path fill="#FFFFFF" d="M10,2.5c4.142,0,7.5,3.357,7.5,7.5c0,4.141-3.358,7.499-7.5,7.499c-4.142,0-7.5-3.357-7.5-7.499
		C2.5,5.857,5.857,2.5,10,2.5 M10,0.5c-5.238,0-9.5,4.262-9.5,9.5c0,5.237,4.261,9.499,9.5,9.499s9.5-4.261,9.5-9.499
		C19.499,4.762,15.238,0.5,10,0.5L10,0.5z"/>
</svg>
