<svg version="1.1" id="Layer_1" xmlns="http://www.w3.org/2000/svg" xmlns:xlink="http://www.w3.org/1999/xlink" x="0px" y="0px"
	 width="24.832px" height="22.993px" viewBox="0 0 24.832 22.993">
<path fill="#959595" d="M14.767,22.993c-0.166,0-0.332-0.04-0.482-0.121l-4.702-2.515c-0.328-0.175-0.532-0.514-0.532-0.883V12.56
	L0.222,1.63C-0.022,1.329-0.069,0.917,0.1,0.569C0.269,0.222,0.625,0,1.014,0h22.803c0.391,0,0.746,0.222,0.915,0.569
	c0.169,0.348,0.122,0.76-0.122,1.062L15.782,12.56v9.43c0,0.353-0.188,0.681-0.495,0.862C15.126,22.945,14.947,22.993,14.767,22.993
	z M11.08,18.876l2.673,1.429v-8.097c0-0.228,0.078-0.448,0.222-0.626l7.733-9.574H3.125l7.733,9.574
	c0.144,0.178,0.222,0.398,0.222,0.626V18.876z"/>
</svg>
