<svg id="Layer_1" data-name="Layer 1" xmlns="http://www.w3.org/2000/svg" viewBox="0 0 40 40"><defs><style>.cls-1{fill:#231f20;}</style></defs><title>v copy 6</title><path class="cls-1" d="M31.34,12l0,0,0,0a3.6,3.6,0,0,0-2.84-1.41H11.53a3.6,3.6,0,0,0-2.84,1.41h0v0a3.58,3.58,0,0,0-.74,2.17V25.86a3.62,3.62,0,0,0,3.62,3.62H28.47a3.62,3.62,0,0,0,3.62-3.62V14.14A3.58,3.58,0,0,0,31.34,12Zm-2.88.55a1.6,1.6,0,0,1,.56.11l-8.62,7.53a.68.68,0,0,1-.82,0L11,12.62a1.6,1.6,0,0,1,.56-.11Zm0,15H11.53a1.62,1.62,0,0,1-1.62-1.62V14.36l8.36,7.3a2.67,2.67,0,0,0,3.45,0l8.36-7.3V25.86A1.62,1.62,0,0,1,28.47,27.48Z"/></svg>