<svg id="Layer_1" data-name="Layer 1" xmlns="http://www.w3.org/2000/svg" viewBox="0 0 40 40"><defs><style>.cls-1{fill:#231f20;}</style></defs><title>v copy 2</title><path class="cls-1" d="M27.23,20.7l2.84-2.16.1-.09a6.11,6.11,0,0,0,0-8.62h0a6.1,6.1,0,0,0-8.62,0l-.09.1L19.3,12.77,16.44,9.91a3.76,3.76,0,0,0-5.32,5.32l3.59,3.59-4,5.22-1-1a1,1,0,0,0-1.41,1.41l1.8,1.8,3.6,3.6,1.8,1.8A1,1,0,0,0,17,30.25l-1-1,5.22-4,3.59,3.59a3.76,3.76,0,1,0,5.32-5.32ZM12.54,13.81A1.76,1.76,0,0,1,15,11.32l3.05,3.05-2.15,2.83Zm-.36,11.64L23,11.2A4.1,4.1,0,0,1,28.8,17L14.54,27.83Zm16.5,2a1.76,1.76,0,0,1-2.49,0l-3.39-3.39,2.83-2.15L28.68,25A1.76,1.76,0,0,1,28.68,27.46Z"/></svg>