<svg id="Layer_1" data-name="Layer 1" xmlns="http://www.w3.org/2000/svg" viewBox="0 0 40 40"><defs><style>.cls-1{fill:#231f20;}</style></defs><title>v copy 3</title><path class="cls-1" d="M19.35,18.9a1,1,0,0,1-.71-.29l-4-4a1,1,0,0,1-.29-.62c-.18-2.07,2.83-5.12,3.76-6a6.42,6.42,0,0,1,3.73-1.74,4.69,4.69,0,0,1,4,1.19h0c2,2,1.35,5.81-.56,7.72-.62.62-3.84,3.73-5.9,3.75Zm-3-5.38,3.31,3.31a15.05,15.05,0,0,0,4.15-3.09c1.2-1.2,1.71-3.75.56-4.89a2.8,2.8,0,0,0-2.33-.62A4.47,4.47,0,0,0,19.52,9.4,13.52,13.52,0,0,0,16.39,13.52Z"/><path class="cls-1" d="M13,24.3a4.11,4.11,0,0,1-2.95-1.14A4.43,4.43,0,0,1,10,17.39c.33-.33,2.06-2,3.65-1.69a1,1,0,0,1,.54.28l3.12,3.12a1,1,0,0,1,.26.45c.44,1.67-1.34,3.43-1.7,3.76a4,4,0,0,1-2.7,1Zm0-6.61a4.83,4.83,0,0,0-1.66,1.11,2.46,2.46,0,0,0,.12,2.95,2.29,2.29,0,0,0,1.6.55,2.13,2.13,0,0,0,1.35-.43,4.27,4.27,0,0,0,1.14-1.63Z"/><path class="cls-1" d="M22.14,29.87a2.6,2.6,0,0,1-.55-.05,1,1,0,0,1-.63-.44l-3-4.79a1,1,0,0,1-.14-.67c.28-2.06,3.9-4.37,5-5a6.45,6.45,0,0,1,4-.87,4.69,4.69,0,0,1,3.62,2h0c1.52,2.41,0,6-2.26,7.4C27.49,27.89,24.24,29.87,22.14,29.87Zm-2.26-6,2.49,4a15,15,0,0,0,4.73-2.09c1.44-.91,2.5-3.27,1.63-4.65h0c-.86-1.37-3.46-1.44-4.9-.54A13.52,13.52,0,0,0,19.88,23.91Z"/><path class="cls-1" d="M15.32,33.81a4.44,4.44,0,0,1-3.73-1.89h0a4.13,4.13,0,0,1-.43-3.23,4,4,0,0,1,1.6-2.43c.4-.25,2.44-1.45,3.93-.84a1,1,0,0,1,.46.39l2.35,3.74a1,1,0,0,1,.15.5c.06,1.73-2.06,3-2.49,3.29A3.5,3.5,0,0,1,15.32,33.81Zm-2-3a2.46,2.46,0,0,0,2.85.77,4.28,4.28,0,0,0,1.47-1.33l-1.92-3.05a4.83,4.83,0,0,0-1.87.71,2.13,2.13,0,0,0-.72,1.22,2.19,2.19,0,0,0,.18,1.68Z"/></svg>