<svg id="Layer_1" data-name="Layer 1" xmlns="http://www.w3.org/2000/svg" viewBox="0 0 40 40"><defs><style>.cls-1{fill:#231f20;}</style></defs><title>v</title><path class="cls-1" d="M9.37,30.76v-5.4a5.25,5.25,0,1,0-2,0v5.42a1,1,0,0,0,.25.65l0,.06a1,1,0,0,0,.15.1,1,1,0,0,0,.56.19,1,1,0,0,0,.7-.29h0a1,1,0,0,0,.22-.33,1,1,0,0,0,.08-.38ZM5.11,20.21a3.25,3.25,0,1,1,3.25,3.25A3.26,3.26,0,0,1,5.11,20.21Z"/><path class="cls-1" d="M16.52,24.86a1,1,0,0,0-.36,1.37,1,1,0,0,0,.86.49,1,1,0,0,0,.51-.13,1,1,0,0,0,.36-1.37A1,1,0,0,0,16.52,24.86Z"/><path class="cls-1" d="M13.63,26.55a1,1,0,0,0,.51,1.86.92.92,0,0,0,.5-.14,1,1,0,1,0-1-1.72Z"/><path class="cls-1" d="M10.75,28.23a1,1,0,0,0,.5,1.87,1.06,1.06,0,0,0,.51-.14,1,1,0,0,0,.35-1.37A1,1,0,0,0,10.75,28.23Z"/><path class="cls-1" d="M36.8,18.38a5.25,5.25,0,1,0-6.17,6.07v5.38s0,0,0,0a1.19,1.19,0,0,0,0,.19l.06.19.09.17a.68.68,0,0,0,.11.13l0,0,.13.11.17.09.19.06.19,0A1,1,0,0,0,32,30.8a1,1,0,0,0,.61-.92V24.46A5.25,5.25,0,0,0,36.8,18.38Zm-2.5,2.78a3.25,3.25,0,1,1,.53-2.43A3.23,3.23,0,0,1,34.3,21.17Z"/><path class="cls-1" d="M20.91,24V18.62a5.25,5.25,0,1,0-2,0V24a1,1,0,0,0,0,.21,1,1,0,0,0,0,.17,1,1,0,0,0,.07.11,1,1,0,0,0,.14.21,1.06,1.06,0,0,0,.16.1,1,1,0,0,0,.17.11,1,1,0,0,0,.38.08.93.93,0,0,0,.65-.26l.05,0h0a1,1,0,0,0,.25-.47.94.94,0,0,0,.05-.24Zm-4.2-10a3.25,3.25,0,1,1,3.77,2.63A3.25,3.25,0,0,1,16.71,14Z"/><path class="cls-1" d="M26.22,26.06a1,1,0,0,0-1.35.45,1,1,0,0,0,.45,1.34,1.07,1.07,0,0,0,.45.11,1,1,0,0,0,.45-1.9Z"/><path class="cls-1" d="M29.15,27.52a1,1,0,1,0-.45,1.9,1,1,0,0,0,.45-1.9Z"/><path class="cls-1" d="M23.29,24.6a1,1,0,0,0-1.35.45,1,1,0,0,0,.45,1.34,1.07,1.07,0,0,0,.45.11,1,1,0,0,0,.9-.56A1,1,0,0,0,23.29,24.6Z"/></svg>