<svg id="Layer_1" data-name="Layer 1" xmlns="http://www.w3.org/2000/svg" viewBox="0 0 40 40"><defs><style>.cls-1{fill:#231f20;}</style></defs><title>v copy 4</title><path class="cls-1" d="M30.67,15.46H29.43v-.92a5.82,5.82,0,0,0-5.81-5.81H16.38a5.82,5.82,0,0,0-5.81,5.81v.92H9.33a2.6,2.6,0,0,0-2.6,2.6,1,1,0,0,0,2,0,.6.6,0,0,1,.6-.6h1.23v9.41a1,1,0,0,0,1,1H12v2.39a1,1,0,0,0,1,1h2.64a1,1,0,0,0,1-1V27.88h6.48v2.39a1,1,0,0,0,1,1h2.64a1,1,0,0,0,1-1V27.88h.65a1,1,0,0,0,1-1V17.46h1.23a.6.6,0,0,1,.6.6,1,1,0,1,0,2,0A2.6,2.6,0,0,0,30.67,15.46ZM27.43,25.88H12.57V21.5H27.43ZM12.57,19.5V15.12H27.43V19.5Zm3.81-8.77h7.25a3.81,3.81,0,0,1,3.53,2.39H12.85A3.81,3.81,0,0,1,16.38,10.73ZM14.67,29.27H14V27.88h.64Zm11.12,0h-.64V27.88h.64Z"/></svg>