<?xml version="1.0" encoding="utf-8"?>
<!-- Generator: Adobe Illustrator 15.0.0, SVG Export Plug-In . SVG Version: 6.00 Build 0)  -->
<svg version="1.0" xmlns="http://www.w3.org/2000/svg" xmlns:xlink="http://www.w3.org/1999/xlink"
	 x="0px" y="0px" width="277.408px" height="269.695px" viewBox="167.681 260.901 277.408 269.695" xml:space="preserve">
<path fill="#959595" d="M440.64,380.7c-5.967-5.933-15.605-5.933-21.572,0L321.3,478.926V276.201c0-8.45-6.85-15.3-15.3-15.3s-15.3,6.85-15.3,15.3
	v202.725L192.933,380.7c-6.418-5.497-16.077-4.749-21.573,1.669c-4.905,5.728-4.905,14.176,0,19.904l123.93,123.93
	c1.632,1.07,3.264,2.142,4.896,3.213c3.77,1.572,8.011,1.572,11.781,0c1.632-1.071,3.264-2.143,4.896-3.213l123.776-123.93
	C446.572,396.306,446.572,386.667,440.64,380.7z"/>
</svg>
