<?xml version="1.0" encoding="utf-8"?>
<!-- Generator: Adobe Illustrator 15.0.0, SVG Export Plug-In . SVG Version: 6.00 Build 0)  -->
<svg version="1.2" baseProfile="tiny" id="Layer_1" xmlns="http://www.w3.org/2000/svg" xmlns:xlink="http://www.w3.org/1999/xlink"
	 x="0px" y="0px" width="277.408px" height="269.695px" viewBox="167.681 260.901 277.408 269.695" xml:space="preserve">
<path fill="#959595" d="M172.13,410.796c5.967,5.933,15.605,5.933,21.572,0l97.768-98.226v202.725c0,8.45,6.85,15.3,15.299,15.3
	c8.45,0,15.3-6.85,15.3-15.3V312.57l97.768,98.226c6.418,5.496,16.076,4.749,21.573-1.669c4.905-5.729,4.905-14.176,0-19.904
	l-123.931-123.93c-1.632-1.07-3.264-2.142-4.896-3.213c-3.77-1.572-8.011-1.572-11.781,0c-1.632,1.071-3.264,2.143-4.896,3.213
	L172.13,389.223C166.198,395.19,166.198,404.828,172.13,410.796z"/>
</svg>
