<?xml version="1.0" encoding="utf-8"?>
<!-- Generator: Adobe Illustrator 15.0.0, SVG Export Plug-In . SVG Version: 6.00 Build 0)  -->
<svg version="1.2" baseProfile="tiny" id="Layer_1" xmlns="http://www.w3.org/2000/svg" xmlns:xlink="http://www.w3.org/1999/xlink"
	 x="0px" y="0px" width="268.308px" height="277.408px" viewBox="171.744 257.043 268.308 277.408" xml:space="preserve">
<path fill="#959595" d="M321.432,530.001c5.933-5.967,5.933-15.605,0-21.572l-98.226-97.768h202.725c8.45,0,15.3-6.849,15.3-15.299
	s-6.85-15.3-15.3-15.3H223.206l98.226-97.768c5.496-6.418,4.749-16.076-1.669-21.573c-5.729-4.905-14.176-4.905-19.904,0
	l-123.93,123.931c-1.07,1.632-2.142,3.264-3.213,4.896c-1.572,3.77-1.572,8.011,0,11.78c1.071,1.632,2.143,3.264,3.213,4.896
	l123.93,123.776C305.826,535.934,315.464,535.934,321.432,530.001z"/>
</svg>
