<?xml version="1.0" encoding="utf-8"?>
<!-- Generator: Adobe Illustrator 15.0.0, SVG Export Plug-In . SVG Version: 6.00 Build 0)  -->
<!DOCTYPE svg PUBLIC "-//W3C//DTD SVG 1.1//EN" "http://www.w3.org/Graphics/SVG/1.1/DTD/svg11.dtd">
<svg version="1.1" id="Layer_1" xmlns="http://www.w3.org/2000/svg" xmlns:xlink="http://www.w3.org/1999/xlink" x="0px" y="0px"
	 width="277.408px" height="273.551px" viewBox="0 0 277.408 273.551" enable-background="new 0 0 277.408 273.551"
	 xml:space="preserve">
<path fill="#959595" d="M123.655,2.521c-5.935,5.967-5.935,15.604,0,21.57l98.227,97.77H19.156c-8.446,0-15.301,6.852-15.301,15.3
	c0,8.451,6.854,15.302,15.301,15.302h202.726l-98.227,97.77c-5.496,6.418-4.748,16.074,1.67,21.57
	c5.729,4.903,14.177,4.903,19.904,0L269.16,147.869c1.068-1.631,2.143-3.264,3.213-4.896c1.57-3.771,1.57-8.01,0-11.779
	c-1.07-1.631-2.146-3.266-3.213-4.896L145.229,2.524C139.262-3.412,129.625-3.412,123.655,2.521z"/>
</svg>
