<?xml version="1.0" encoding="utf-8"?>
<!-- Generator: Adobe Illustrator 15.0.0, SVG Export Plug-In . SVG Version: 6.00 Build 0)  -->
<!DOCTYPE svg PUBLIC "-//W3C//DTD SVG 1.1//EN" "http://www.w3.org/Graphics/SVG/1.1/DTD/svg11.dtd">
<svg version="1.1" id="Layer_1" xmlns="http://www.w3.org/2000/svg" xmlns:xlink="http://www.w3.org/1999/xlink" x="0px" y="0px"
	 width="277.408px" height="273.551px" viewBox="0 0 277.408 273.551" enable-background="new 0 0 277.408 273.551"
	 xml:space="preserve">
<path fill="#fd7e56" d="M153.751,271.03c5.935-5.967,5.935-15.604,0-21.569L55.524,151.69H258.25c8.446,0,15.301-6.852,15.301-15.299
	c0-8.451-6.854-15.302-15.301-15.302H55.524l98.227-97.77c5.496-6.418,4.748-16.074-1.67-21.57c-5.729-4.903-14.177-4.903-19.904,0
	L8.246,125.683c-1.069,1.631-2.143,3.264-3.213,4.896c-1.571,3.771-1.571,8.01,0,11.779c1.07,1.631,2.145,3.267,3.213,4.896
	l123.931,123.772C138.144,276.964,147.78,276.964,153.751,271.03z"/>
</svg>
