<?xml version="1.0" encoding="utf-8"?>
<!-- Generator: Adobe Illustrator 15.0.0, SVG Export Plug-In . SVG Version: 6.00 Build 0)  -->
<!DOCTYPE svg PUBLIC "-//W3C//DTD SVG 1.1//EN" "http://www.w3.org/Graphics/SVG/1.1/DTD/svg11.dtd">
<svg version="1.1" id="Layer_1" xmlns="http://www.w3.org/2000/svg" xmlns:xlink="http://www.w3.org/1999/xlink" x="0px" y="0px"
	 width="277.408px" height="273.551px" viewBox="0 0 277.408 273.551" enable-background="new 0 0 277.408 273.551"
	 xml:space="preserve">
<path d="M272.957,121.728c-5.967-5.935-15.604-5.935-21.569,0l-97.771,98.228V17.229c0-8.446-6.852-15.301-15.299-15.301
	c-8.451,0-15.302,6.854-15.302,15.301v202.727l-97.77-98.228c-6.418-5.496-16.074-4.748-21.57,1.67
	c-4.903,5.729-4.903,14.178,0,19.904L127.61,267.233c1.631,1.068,3.264,2.143,4.896,3.213c3.771,1.57,8.01,1.57,11.779,0
	c1.631-1.07,3.267-2.146,4.896-3.213l123.772-123.932C278.891,137.335,278.891,127.698,272.957,121.728z"/>
</svg>
