<?xml version="1.0" encoding="utf-8"?>
<!-- Generator: Adobe Illustrator 15.0.0, SVG Export Plug-In . SVG Version: 6.00 Build 0)  -->
<!DOCTYPE svg PUBLIC "-//W3C//DTD SVG 1.1//EN" "http://www.w3.org/Graphics/SVG/1.1/DTD/svg11.dtd">
<svg version="1.1" id="Layer_1" xmlns="http://www.w3.org/2000/svg" xmlns:xlink="http://www.w3.org/1999/xlink" x="0px" y="0px"
	 width="277.408px" height="273.551px" viewBox="0 0 277.408 273.551" enable-background="new 0 0 277.408 273.551"
	 xml:space="preserve">
<path fill="#959595" d="M4.448,151.824c5.967,5.935,15.604,5.935,21.57,0l97.77-98.227v202.726c0,8.447,6.852,15.301,15.3,15.301
	c8.451,0,15.302-6.854,15.302-15.301V53.597l97.769,98.227c6.418,5.496,16.075,4.748,21.571-1.67c4.903-5.729,4.903-14.177,0-19.904
	L149.796,6.319c-1.631-1.069-3.264-2.143-4.896-3.213c-3.771-1.571-8.011-1.571-11.78,0c-1.631,1.07-3.266,2.145-4.896,3.213
	L4.451,130.25C-1.485,136.217-1.485,145.854,4.448,151.824z"/>
</svg>
