<svg id="Layer_1" data-name="Layer 1" xmlns="http://www.w3.org/2000/svg" viewBox="0 0 40 40"><defs><style>.cls-1{fill:#959595;}</style></defs><title>v copy 5</title><path class="cls-1" d="M28.55,14.22H25.35v-.88a5.35,5.35,0,1,0-10.71,0v.88H11.45a1,1,0,0,0-1,1V31a1,1,0,0,0,1.16,1L20,30.6,28.38,32h.16a1,1,0,0,0,1-1V15.22A1,1,0,0,0,28.55,14.22Zm-11.9-.88a3.35,3.35,0,1,1,6.71,0v.88H16.64Zm10.9,16.49L20.16,28.6h-.33l-7.38,1.23V16.22h2.19v2.72a1,1,0,0,0,2,0V16.22h6.71v2.72a1,1,0,0,0,2,0V16.22h2.19Z"/></svg>